<svg width="38" height="35" viewBox="0 0 38 35" fill="none" xmlns="http://www.w3.org/2000/svg">
<g opacity="0.3">
<path d="M2.13294 34.5247C2.18781 34.8375 2.48558 35.0467 2.79844 34.9922L8.33261 34.0241C8.64547 33.9692 8.85468 33.6714 8.80013 33.3586L8.68173 32.6812L10.0185 31.5954C10.5444 31.1574 11.2202 30.9411 11.903 30.9924L20.9277 31.6522C20.9405 31.6531 20.9534 31.6535 20.9662 31.6538H21.0208C22.9906 31.6496 24.9085 31.022 26.4994 29.8604C26.5212 29.8443 26.5421 29.8267 26.5617 29.8074L37.3114 19.282C37.5289 19.0693 37.5427 18.7237 37.3431 18.4939C36.1389 17.1033 34.0538 16.905 32.6086 18.0434L27.5914 21.7951C26.5938 20.5245 24.9791 19.9052 23.3875 20.1821L18.3405 21.0651C17.5213 21.2073 16.6802 21.1633 15.8803 20.9368L15.3159 20.776C12.3875 19.935 9.23235 20.622 6.91915 22.6047L6.6756 21.2137C6.62105 20.9012 6.32328 20.692 6.01042 20.7465L0.475927 21.7146C0.163393 21.7691 -0.0461405 22.0672 0.00872962 22.3798L2.13294 34.5247ZM15.0011 21.8827L15.5655 22.0432C16.5323 22.3172 17.5485 22.3701 18.5391 22.1982L23.5862 21.3154C25.1267 21.0481 26.6387 21.9193 27.1797 23.3864L19.5004 24.7299C19.2055 24.7803 18.9986 25.0482 19.0246 25.346C19.0502 25.6441 19.2999 25.8725 19.5989 25.8716C19.6326 25.8716 19.666 25.8687 19.6987 25.8629L27.995 24.4119C28.3076 24.357 28.5168 24.0592 28.4622 23.7464C28.4048 23.4188 28.3101 23.0985 28.1798 22.7921L33.3036 18.9608L33.3155 18.9518C34.1177 18.3168 35.243 18.2895 36.0754 18.8841L25.7867 28.943C24.3983 29.9412 22.7313 30.4778 21.0214 30.4765H20.9928L11.9874 29.8318C11.0097 29.7606 10.0426 30.0715 9.28979 30.6995L8.45519 31.3804L7.15595 23.9546C9.19128 21.8741 12.2037 21.0783 15.0011 21.8821V21.8827ZM5.64205 21.9784L7.56828 32.9899L3.16681 33.76L1.24058 22.7481L5.64205 21.9784Z" fill="white"/>
<path d="M19.2019 17.1195C19.3106 17.253 19.4733 17.3309 19.6456 17.3325H19.6463C19.8189 17.3309 19.9819 17.2523 20.0904 17.1179L29.2694 5.90801C29.4244 5.71837 29.443 5.45172 29.3153 5.24251L26.2753 0.272437C26.1704 0.102051 25.9843 -0.00127165 25.7843 1.18565e-05H13.453C13.2531 -0.00127165 13.067 0.10173 12.9624 0.271795L9.92241 5.24347C9.79438 5.453 9.81331 5.72029 9.96894 5.90993L19.2019 17.1195ZM23.0716 6.07871L19.6434 15.1364L16.1872 6.07871H23.0716ZM16.4696 4.92869L19.6209 1.39647L22.8069 4.92869H16.4696ZM24.3013 6.07871H27.6137L21.4547 13.5991L24.3013 6.07871ZM24.7367 4.92869L25.9066 1.83704L27.7966 4.92869H24.7367ZM23.758 4.30587L20.9115 1.15004H24.952L23.758 4.30587ZM15.5028 4.32512L14.2915 1.15004H18.3355L15.5028 4.32512ZM14.5177 4.92869H11.4408L13.3353 1.82966L14.5177 4.92869ZM14.9563 6.07871L17.8282 13.6055L11.6282 6.07871H14.9563Z" fill="white"/>
</g>
</svg>
