<svg width="35" height="35" viewBox="0 0 35 35" fill="none" xmlns="http://www.w3.org/2000/svg">
<g opacity="0.3">
<path d="M25.9677 8.46774C26.1483 8.46774 26.3179 8.55432 26.4242 8.70038L30.9403 14.9101C31.0919 15.1186 31.0832 15.4033 30.9188 15.6019L17.3704 31.9729C17.2632 32.1025 17.1036 32.1774 16.9354 32.1774C16.7672 32.1774 16.6077 32.1025 16.5005 31.9729L2.95206 15.6019C2.78769 15.4033 2.77896 15.1186 2.93056 14.9101L7.4467 8.70038L7.48915 8.64856C7.59528 8.53403 7.74502 8.46774 7.90316 8.46774H25.9677ZM4.10094 15.2193L16.9354 30.727L29.7694 15.2193L25.6805 9.59677H8.19038L4.10094 15.2193Z" fill="white"/>
<path d="M30.4838 14.6774C30.7956 14.6774 31.0484 14.9302 31.0484 15.2419C31.0484 15.5537 30.7956 15.8065 30.4838 15.8065H3.38703C3.07526 15.8065 2.82252 15.5537 2.82252 15.2419C2.82252 14.9302 3.07526 14.6774 3.38703 14.6774H30.4838Z" fill="white"/>
<path d="M25.4721 8.76214C25.6214 8.48849 25.9642 8.38749 26.2379 8.53666C26.5115 8.68593 26.6125 9.02872 26.4633 9.3024L23.0762 15.5121C22.9888 15.6724 22.8292 15.7809 22.6479 15.8026C22.4665 15.8243 22.2856 15.7569 22.1627 15.6218L16.9355 9.87133L11.7082 15.6218C11.5853 15.7569 11.4044 15.8243 11.223 15.8026C11.0417 15.7809 10.8821 15.6724 10.7947 15.5121L7.40757 9.3024C7.2584 9.02872 7.3594 8.68593 7.63305 8.53666C7.90673 8.38749 8.24952 8.48849 8.39879 8.76214L11.4055 14.275L16.5176 8.65244L16.56 8.61054C16.6629 8.51897 16.7964 8.46775 16.9355 8.46775C17.0945 8.46775 17.2463 8.53475 17.3533 8.65244L22.4648 14.275L25.4721 8.76214Z" fill="white"/>
<path d="M22.0469 15.0579C22.1486 14.7633 22.47 14.6068 22.7647 14.7084C23.0594 14.8101 23.2159 15.1315 23.1142 15.4262L17.4691 31.7972C17.3905 32.0248 17.1762 32.1774 16.9354 32.1774C16.6946 32.1774 16.4803 32.0248 16.4018 31.7972L10.7566 15.4262C10.655 15.1315 10.8114 14.8101 11.1061 14.7084C11.4008 14.6068 11.7222 14.7633 11.8239 15.0579L16.9354 29.8809L22.0469 15.0579Z" fill="white"/>
<path d="M31.0484 0C31.325 2.97288e-06 31.5611 0.200548 31.6057 0.473554C31.8385 1.89819 32.1701 2.62133 32.5842 3.05412C33.1352 3.52919 33.8069 3.8426 34.5253 3.95878C34.7893 4.00146 34.9874 4.22361 34.9994 4.49077C35.0114 4.75797 34.8341 4.99688 34.5749 5.063C33.4657 5.34604 32.8519 5.59453 32.4122 6.18156C31.968 6.89001 31.6935 7.69171 31.6101 8.52397C31.5814 8.81063 31.3414 9.02973 31.0533 9.03226C30.7652 9.03467 30.5212 8.81956 30.4877 8.53335C30.3996 7.78138 30.1732 7.05245 29.8212 6.38223C29.3712 5.64325 28.7356 5.37283 27.5218 5.063C27.2628 4.9969 27.0855 4.75833 27.0973 4.49132C27.1091 4.22422 27.307 4.00169 27.5708 3.95878C28.2838 3.8428 28.9506 3.53325 29.5003 3.06515C29.9196 2.63448 30.256 1.91152 30.491 0.473554C30.5356 0.20055 30.7717 -4.20924e-08 31.0484 0ZM31.0484 2.72004C30.8449 3.18565 30.5966 3.56488 30.2881 3.87554C30.2779 3.88587 30.2672 3.89579 30.2562 3.9053C29.9859 4.13829 29.693 4.34097 29.3829 4.51117C29.8759 4.75884 30.308 5.09508 30.663 5.60547L30.7986 5.81496L30.8135 5.84197C30.8989 6.00369 30.9766 6.16927 31.0495 6.33647C31.172 6.06871 31.3123 5.80827 31.4706 5.55806C31.4778 5.54679 31.4853 5.53572 31.4932 5.52498C31.8369 5.05923 32.2486 4.74459 32.7132 4.51062C32.3981 4.33726 32.1004 4.13053 31.8268 3.89207C31.8156 3.88236 31.8046 3.87231 31.7943 3.86175C31.4923 3.55351 31.2487 3.17848 31.0484 2.72004Z" fill="white"/>
<path d="M4.51608 24.8387C4.79202 24.8387 5.02752 25.0384 5.07288 25.3106C5.34851 26.9643 5.74576 27.8105 6.25594 28.3206C6.76998 28.8347 7.4747 29.0895 8.60442 29.3719C8.85572 29.4348 9.03222 29.6603 9.03222 29.9194C9.03222 30.1784 8.85572 30.404 8.60442 30.4668C7.4747 30.7492 6.76998 31.004 6.25594 31.5181C5.74576 32.0283 5.34851 32.8745 5.07288 34.5281C5.02752 34.8003 4.79203 35 4.51608 35C4.24015 35 4.00468 34.8003 3.95928 34.5281C3.69857 32.9651 3.3293 32.1238 2.86002 31.6063C2.33965 31.0327 1.61877 30.7643 0.427745 30.4668C0.167814 30.4019 -0.0106984 30.1633 0.000498459 29.8956C0.0117472 29.628 0.209646 29.405 0.474053 29.362C1.3047 29.2269 2.08557 28.8787 2.74204 28.3526C3.26752 27.8454 3.67774 26.9977 3.95928 25.3101L3.96976 25.2604C4.03395 25.0141 4.2573 24.8387 4.51608 24.8387ZM4.51498 27.6304C4.25358 28.281 3.92513 28.7878 3.50392 29.1872C3.49319 29.1974 3.48234 29.2077 3.47084 29.217C3.13387 29.4897 2.76911 29.7227 2.38481 29.9155C2.87669 30.1393 3.31804 30.4307 3.69632 30.8477C4.02794 31.2134 4.29562 31.6592 4.51553 32.2066C4.76181 31.5936 5.06913 31.1084 5.45768 30.7198C5.80555 30.372 6.20289 30.1191 6.64019 29.9194C6.20289 29.7196 5.80555 29.4668 5.45768 29.1189C5.06879 28.73 4.76136 28.2443 4.51498 27.6304Z" fill="white"/>
<path d="M31.0489 25.4032C31.3263 25.4035 31.5622 25.6055 31.6057 25.8795C31.7987 27.0955 32.0731 27.696 32.4018 28.0488C32.8422 28.4401 33.3835 28.7001 33.9647 28.798C34.2354 28.8436 34.4341 29.0776 34.4355 29.3521C34.4368 29.6266 34.2404 29.8622 33.9702 29.9105C33.4176 30.0093 32.8989 30.2456 32.4613 30.5969C32.1056 30.9417 31.8103 31.5415 31.6057 32.8307C31.5607 33.1132 31.3116 33.3173 31.0258 33.3059C30.7399 33.2944 30.5077 33.0708 30.4855 32.7855C30.4272 32.036 30.1665 31.317 29.7324 30.7038C29.2944 30.2837 28.7379 30.0069 28.1376 29.9122C27.8644 29.869 27.6627 29.6342 27.6613 29.3576C27.6599 29.081 27.8593 28.844 28.1321 28.798C28.7129 28.7002 29.2536 28.4403 29.6939 28.0494C30.0203 27.696 30.2961 27.0933 30.491 25.8784L30.5015 25.8277C30.5647 25.5799 30.7889 25.403 31.0489 25.4032ZM31.0473 28.0351C30.8943 28.3497 30.7136 28.6168 30.4982 28.8438C30.488 28.8545 30.4772 28.8648 30.4662 28.8747C30.2657 29.0552 30.0489 29.2147 29.8201 29.3532C30.0417 29.4892 30.2508 29.6464 30.4442 29.8234L30.561 29.9342L30.6211 30.0043C30.7788 30.222 30.918 30.4511 31.0401 30.6884C31.2189 30.3167 31.4363 30.0108 31.7044 29.7584C31.7144 29.7489 31.7251 29.74 31.7358 29.7314C31.9075 29.5921 32.0888 29.4661 32.2777 29.3543C32.0485 29.2156 31.8314 29.0556 31.6305 28.8747C31.6201 28.8653 31.6099 28.8551 31.6002 28.8449C31.3826 28.6173 31.2006 28.3501 31.0473 28.0351Z" fill="white"/>
</g>
</svg>
