<svg width="35" height="35" viewBox="0 0 35 35" fill="none" xmlns="http://www.w3.org/2000/svg">
<path opacity="0.3" d="M14.0935 17.5646C13.653 17.5646 13.2948 17.9319 13.2948 18.3832V19.3281C13.2948 19.7794 13.6531 20.1466 14.0935 20.1466C14.4179 20.1466 14.5458 20.4007 14.5773 20.4786C14.6088 20.5565 14.6938 20.829 14.4644 21.0639C14.3135 21.2186 14.2304 21.4241 14.2304 21.6428C14.2304 21.8616 14.3135 22.0671 14.4644 22.2217L15.1164 22.8898C15.4278 23.2089 15.9346 23.2089 16.246 22.8898C16.4761 22.6542 16.7415 22.7411 16.8176 22.7733C16.8935 22.8056 17.1414 22.9367 17.1414 23.2699C17.1414 23.7212 17.4997 24.0883 17.9401 24.0883H18.8622C19.3027 24.0883 19.6611 23.7211 19.6611 23.2699C19.6611 22.9375 19.9091 22.8064 19.9851 22.7741C20.0611 22.7418 20.327 22.6548 20.5563 22.8898C20.8678 23.2089 21.3746 23.2089 21.686 22.8898L22.338 22.2217C22.4889 22.0671 22.572 21.8616 22.572 21.6428C22.572 21.4241 22.4889 21.2186 22.3381 21.064C22.1087 20.829 22.1936 20.5565 22.2251 20.4786C22.2566 20.4007 22.3846 20.1466 22.7089 20.1466C23.1494 20.1466 23.5077 19.7794 23.5077 19.3281V18.3832C23.5077 17.9319 23.1493 17.5646 22.7089 17.5646C22.3846 17.5646 22.2566 17.3105 22.2251 17.2326C22.1936 17.1547 22.1087 16.8822 22.3379 16.6473C22.4889 16.4927 22.572 16.2871 22.572 16.0684C22.572 15.8496 22.4889 15.6441 22.3381 15.4895L21.686 14.8214C21.3746 14.5023 20.8678 14.5023 20.5563 14.8214C20.327 15.0564 20.0611 14.9694 19.9851 14.9371C19.9091 14.9049 19.6611 14.7738 19.6611 14.4414C19.6611 13.99 19.3026 13.6229 18.8622 13.6229H17.9401C17.4996 13.6229 17.1414 13.9901 17.1414 14.4414C17.1414 14.7737 16.8933 14.9048 16.8173 14.9371C16.7415 14.9694 16.4755 15.0565 16.2461 14.8214C15.9346 14.5023 15.4278 14.5023 15.1164 14.8214L14.4644 15.4895C14.3135 15.6441 14.2304 15.8496 14.2304 16.0684C14.2304 16.2871 14.3135 16.4926 14.4644 16.6471C14.6937 16.8821 14.6088 17.1546 14.5773 17.2325C14.5458 17.3105 14.4179 17.5646 14.0935 17.5646ZM15.4937 17.6216C15.7079 17.0917 15.6297 16.5163 15.2941 16.0769L15.6896 15.6716C16.1184 16.0155 16.68 16.0957 17.197 15.8762C17.7141 15.6567 18.0558 15.1931 18.1218 14.6393H18.681C18.747 15.1931 19.0887 15.6567 19.6058 15.8762C20.1229 16.0957 20.6845 16.0154 21.1132 15.6716L21.5086 16.0769C21.1731 16.5162 21.0948 17.0917 21.309 17.6216C21.5232 18.1514 21.9756 18.5015 22.5161 18.5691V19.1421C21.9756 19.2096 21.5232 19.5597 21.309 20.0896C21.0949 20.6196 21.1731 21.195 21.5087 21.6343L21.1132 22.0396C20.6844 21.6958 20.1229 21.6155 19.6058 21.835C19.0887 22.0545 18.747 22.5181 18.681 23.072H18.1218C18.0559 22.5177 17.7143 22.0537 17.1973 21.8344C16.6803 21.6149 16.1186 21.6955 15.6896 22.0397L15.2941 21.6344C15.6296 21.195 15.708 20.6195 15.4937 20.0897C15.2795 19.5599 14.8272 19.2097 14.2867 19.1422V18.5691C14.8271 18.5015 15.2795 18.1514 15.4937 17.6216ZM18.4014 21.6726C19.9173 21.6726 21.1505 20.4089 21.1505 18.8556C21.1505 17.3023 19.9173 16.0386 18.4014 16.0386C16.8854 16.0386 15.6522 17.3023 15.6522 18.8556C15.6522 20.4089 16.8854 21.6726 18.4014 21.6726ZM18.4014 17.055C19.3703 17.055 20.1586 17.8627 20.1586 18.8556C20.1586 19.8485 19.3703 20.6562 18.4014 20.6562C17.4324 20.6562 16.6441 19.8485 16.6441 18.8556C16.6441 17.8627 17.4324 17.055 18.4014 17.055ZM26.0754 9.09784C26.0754 8.76664 25.888 8.48009 25.6166 8.34165V5.8144C25.6166 5.57932 25.556 5.36915 25.4314 5.17204L24.061 3.00357C23.8444 2.66076 23.4915 2.46416 23.0929 2.46416H20.4015V0.508194C20.4015 0.227526 20.1795 0 19.9056 0H11.5519C11.278 0 11.056 0.227526 11.056 0.508194V8.42427C10.8567 8.57868 10.7271 8.82276 10.7271 9.09784V9.92445C10.7271 10.3904 11.0971 10.7694 11.5518 10.7694H12.8786C13.2316 11.3226 13.8409 11.6891 14.5327 11.6891C15.2244 11.6891 15.8339 11.3226 16.1869 10.7694H20.4856C20.8386 11.3226 21.4481 11.6891 22.1398 11.6891C22.8315 11.6891 23.441 11.3226 23.794 10.7694H25.2509C25.7056 10.7694 26.0755 10.3904 26.0755 9.92445L26.0754 9.09784ZM23.2285 3.55605L24.1032 4.94009H22.1867V3.48055H23.093C23.1546 3.48055 23.1951 3.50313 23.2285 3.55605ZM21.1947 3.48055V5.44828C21.1947 5.72895 21.4167 5.95647 21.6906 5.95647H24.6247V8.25286H23.5536C23.1945 7.87542 22.6935 7.64041 22.1398 7.64041C21.586 7.64041 21.085 7.87542 20.726 8.25286H20.4015V3.48055H21.1947ZM19.4096 1.01639V8.25279H15.9465C15.5875 7.87534 15.0865 7.64034 14.5327 7.64034C13.979 7.64034 13.478 7.87534 13.1189 8.25279H12.0478V1.01639H19.4096ZM11.719 9.75305V9.26918H12.5953C12.5705 9.39717 12.5572 9.52937 12.5572 9.6647C12.5572 9.69432 12.5581 9.72372 12.5594 9.75305H11.719ZM14.5327 10.6727C13.9904 10.6727 13.5491 10.2205 13.5491 9.6647C13.5491 9.10895 13.9904 8.6568 14.5327 8.6568C15.0751 8.6568 15.5164 9.10895 15.5164 9.6647C15.5164 10.2205 15.0751 10.6727 14.5327 10.6727ZM16.5061 9.75305C16.5074 9.72372 16.5083 9.69432 16.5083 9.6647C16.5083 9.52937 16.495 9.39717 16.4702 9.26918H20.2024C20.1775 9.39717 20.1643 9.52937 20.1643 9.6647C20.1643 9.69432 20.1652 9.72372 20.1664 9.75305H16.5061ZM22.1398 10.6727C21.5974 10.6727 21.1561 10.2205 21.1561 9.6647C21.1561 9.10895 21.5974 8.6568 22.1398 8.6568C22.6821 8.6568 23.1235 9.10895 23.1235 9.6647C23.1235 10.2205 22.6822 10.6727 22.1398 10.6727ZM25.0835 9.75305H24.1132C24.1144 9.72372 24.1154 9.69432 24.1154 9.6647C24.1154 9.52937 24.102 9.39717 24.0772 9.26918H25.0835V9.75305ZM30.4325 27.0118C31.5229 26.8893 32.3742 25.9401 32.3742 24.7907C32.3742 23.5586 31.3958 22.5561 30.1932 22.5561C28.9907 22.5561 28.0123 23.5586 28.0123 24.7907C28.0123 25.9401 28.8636 26.8893 29.9539 27.0118C27.781 27.1394 26.0513 28.9904 26.0513 31.2481C26.0513 31.7431 26.3053 32.429 27.5152 32.8855C28.23 33.1551 29.181 33.3036 30.1931 33.3036C32.1037 33.3036 34.3349 32.7652 34.3349 31.2481C34.3348 28.9904 32.6052 27.1394 30.4325 27.0118ZM29.0041 24.7908C29.0041 24.1191 29.5375 23.5726 30.1932 23.5726C30.8488 23.5726 31.3822 24.119 31.3822 24.7908C31.3822 25.4626 30.8488 26.0092 30.1932 26.0092C29.5375 26.0092 29.0041 25.4626 29.0041 24.7908ZM30.193 32.2873C28.3368 32.2873 27.0432 31.7396 27.0432 31.2481C27.0432 29.4684 28.4562 28.0206 30.1932 28.0206C31.9299 28.0206 33.3429 29.4684 33.3429 31.2481C33.3429 31.7396 32.0494 32.2873 30.193 32.2873ZM10.1615 25.155C10.0389 25.0588 9.87964 25.0266 9.7305 25.0681L6.73311 25.9V25.5585C6.73311 25.4003 6.66112 25.2511 6.53855 25.155C6.41584 25.0588 6.25664 25.0266 6.1075 25.0681L3.11004 25.9V22.7834C3.11004 22.3645 2.77754 22.0238 2.36881 22.0238H0.741306C0.3325 22.0238 0 22.3645 0 22.7834V30.8256C0 31.1063 0.222045 31.3338 0.495951 31.3338H9.86015C10.1341 31.3338 10.3561 31.1063 10.3561 30.8256V25.5585C10.3561 25.4004 10.2841 25.2511 10.1615 25.155ZM2.11814 23.0402V23.5778H0.991903V23.0402H2.11814ZM0.991903 30.3174V24.5942H2.11814V30.3174H0.991903ZM3.11004 26.953L5.7412 26.2227V30.3174H3.11004V26.953ZM9.3642 30.3174H6.73311V26.953L9.3642 26.2227V30.3174ZM25.1298 31.9986C25.2488 32.2513 25.1453 32.5551 24.8986 32.6771C21.2551 34.4787 16.9395 34.6657 13.1574 33.2247L13.5921 34.2967C13.6972 34.5559 13.5774 34.8533 13.3244 34.961C13.2622 34.9875 13.1978 35 13.1344 35C12.9399 35 12.7554 34.8821 12.6762 34.6867L11.7779 32.4714C11.7274 32.3469 11.7273 32.207 11.7775 32.0825C11.8277 31.9579 11.9241 31.8589 12.0456 31.8072L14.2076 30.8868C14.4605 30.7791 14.7507 30.9019 14.8558 31.1612C14.9609 31.4203 14.8411 31.7178 14.5881 31.8255L13.5218 32.2793C17.049 33.6181 21.0709 33.4414 24.4675 31.7619C24.7143 31.6399 25.0108 31.7457 25.1298 31.9986ZM34.8064 20.4248L32.9507 21.8872C32.8635 21.9559 32.7571 21.9925 32.6483 21.9925C32.6269 21.9925 32.6055 21.9911 32.5841 21.9883C32.4536 21.9708 32.3353 21.901 32.2551 21.7941L30.8279 19.8925C30.661 19.67 30.7016 19.351 30.9187 19.1798C31.1359 19.0087 31.4472 19.0504 31.6141 19.2729L32.3181 20.2108C32.6671 16.3732 31.4595 12.4383 28.9973 9.51108C28.8185 9.29843 28.8417 8.97754 29.0491 8.7943C29.2566 8.61114 29.5698 8.63488 29.7485 8.84745C32.3898 11.9874 33.683 16.2106 33.3036 20.3268L34.2017 19.6191C34.4188 19.4479 34.7301 19.4896 34.8971 19.7121C35.0641 19.9346 35.0235 20.2537 34.8064 20.4248ZM6.21335 9.94645L5.09023 10.0992C4.81852 10.1362 4.56934 9.9405 4.53335 9.6623C4.49736 9.3841 4.6883 9.12862 4.9598 9.09167L7.28057 8.77601C7.55235 8.73906 7.80139 8.93471 7.83745 9.21291L8.14551 11.591C8.1815 11.8692 7.99056 12.1246 7.71906 12.1616C7.44706 12.1985 7.19824 12.0029 7.16218 11.7247L7.01027 10.5518C4.83553 13.6963 3.96116 17.7228 4.66513 21.5194C4.71629 21.7951 4.53959 22.0612 4.2705 22.1136C4.23925 22.1196 4.20808 22.1226 4.1774 22.1226C3.94388 22.1226 3.73593 21.9528 3.69073 21.7092C2.93554 17.6367 3.87629 13.3168 6.21335 9.94645ZM22.6246 9.6647C22.6246 9.93912 22.4076 10.1615 22.1398 10.1615C21.872 10.1615 21.6549 9.93905 21.6549 9.6647C21.6549 9.39034 21.872 9.1679 22.1398 9.1679C22.4076 9.1679 22.6246 9.39034 22.6246 9.6647ZM15.0176 9.6647C15.0176 9.93912 14.8005 10.1615 14.5328 10.1615C14.265 10.1615 14.0479 9.93905 14.0479 9.6647C14.0479 9.39034 14.265 9.1679 14.5328 9.1679C14.8005 9.1679 15.0176 9.39034 15.0176 9.6647ZM4.21297 27.4188V28.0772C4.21297 28.1113 4.18583 28.1391 4.15246 28.1391H3.50999C3.47669 28.1391 3.44948 28.1113 3.44948 28.0772V27.4188C3.44948 27.3847 3.47662 27.3568 3.50999 27.3568H4.15246C4.18583 27.3568 4.21297 27.3847 4.21297 27.4188ZM8.26128 28.0772V27.4188C8.26128 27.3847 8.28841 27.3568 8.32178 27.3568H8.96425C8.99755 27.3568 9.02476 27.3847 9.02476 27.4188V28.0772C9.02476 28.1113 8.99762 28.1391 8.96425 28.1391H8.32178C8.28841 28.1391 8.26128 28.1113 8.26128 28.0772ZM7.07262 28.0772V27.4188C7.07262 27.3847 7.09983 27.3568 7.13313 27.3568H7.7756C7.8089 27.3568 7.8361 27.3847 7.8361 27.4188V28.0772C7.8361 28.1113 7.80897 28.1391 7.7756 28.1391H7.13313C7.09976 28.1391 7.07262 28.1113 7.07262 28.0772ZM5.40169 27.4188V28.0772C5.40169 28.1113 5.37455 28.1391 5.34118 28.1391H4.69871C4.66541 28.1391 4.63821 28.1113 4.63821 28.0772V27.4188C4.63821 27.3847 4.66534 27.3568 4.69871 27.3568H5.34118C5.37448 27.3568 5.40169 27.3847 5.40169 27.4188Z" fill="white"/>
</svg>
