<svg width="35" height="35" viewBox="0 0 35 35" fill="none" xmlns="http://www.w3.org/2000/svg">
<path opacity="0.3" d="M34.9298 25.5691C35.0409 25.5042 33.927 23.5091 33.9097 23.4002C39.9562 6.75492 19.4903 -7.38306 6.07069 4.26876C-5.98898 14.7026 1.09071 34.5364 17.0131 34.9915C19.9905 35.0775 22.9394 34.3901 25.5723 32.9964L26.9561 34.7656C27.0175 34.8414 27.0956 34.902 27.1843 34.9426C27.2729 34.9832 27.3698 35.0027 27.4672 34.9997C27.5647 34.9967 27.6601 34.9712 27.7461 34.9252C27.8321 34.8792 27.9063 34.8139 27.9629 34.7345L34.8038 25.988C34.896 25.8687 34.9409 25.7195 34.9298 25.5691ZM33.6607 18.144C33.6194 19.3879 33.4345 20.6228 33.1098 21.8242C33.0539 21.7388 32.9778 21.6686 32.8882 21.6197C32.7986 21.5708 32.6983 21.5448 32.5963 21.544H27.4489C27.6039 20.4168 27.693 19.2816 27.7158 18.144H33.6607ZM21.5918 24.9787L22.6842 22.793H24.932L24.3875 24.9787H21.5918ZM25.6743 24.9787L26.2189 22.793H28.6783L29.2228 24.9787H25.6743ZM29.1883 26.2277L27.4486 32.1648L25.7088 26.2277H29.1883ZM26.1884 21.544H22.2984C22.1825 21.544 22.0689 21.5763 21.9703 21.6373C21.8717 21.6982 21.792 21.7855 21.7402 21.8892L20.0239 25.3239C19.9743 25.4304 19.9544 25.5483 19.9662 25.6652C19.978 25.7821 20.0211 25.8936 20.0909 25.988L20.4094 26.3953C19.6402 26.2741 18.864 26.202 18.0857 26.1792V18.144H26.4676C26.444 19.282 26.3507 20.4174 26.1884 21.544ZM18.0857 16.8951V8.87142C20.2943 8.79091 22.4729 8.33227 24.5267 7.51541C25.7722 10.4873 26.4302 13.6726 26.4644 16.8951H18.0857ZM18.0857 7.62233V1.32391C20.3161 1.60868 22.4309 3.41991 23.9915 6.38358C22.1061 7.12438 20.1097 7.54313 18.0857 7.62233ZM16.8375 1.32395V7.62231C14.8135 7.54313 12.8172 7.12443 10.9319 6.38369C12.4915 3.42079 14.6064 1.60899 16.8375 1.32395ZM16.8375 8.87137V16.8951H8.45871C8.49297 13.6726 9.15111 10.4873 10.3967 7.51547C12.4505 8.33227 14.6289 8.79087 16.8375 8.87137ZM16.8375 18.144V26.1803C14.6307 26.2607 12.4542 26.7204 10.4033 27.5393C9.15317 24.5631 8.49274 21.3723 8.45869 18.144H16.8375ZM16.8375 27.4283V33.7152C14.6106 33.4309 12.4989 31.6253 10.939 28.6701C12.8214 27.9273 14.8155 27.5075 16.8375 27.4283ZM18.0857 33.7043V27.4274C19.269 27.4671 20.445 27.6292 21.595 27.9111L23.2046 29.969C21.7467 32.164 19.9606 33.4668 18.0857 33.7043ZM21.8627 26.2277H24.4077L25.9323 31.4305C25.9323 31.4305 21.8749 26.2398 21.8627 26.2277ZM30.4894 26.2277H33.032L28.9663 31.4255L30.4894 26.2277ZM30.5097 24.9787L29.9651 22.793H32.2105L33.3029 24.9787H30.5097ZM33.6715 16.8951H27.7125C27.677 13.504 26.9846 10.152 25.6738 7.02462C26.6113 6.59013 27.5175 6.09098 28.3858 5.53078C29.9782 6.97781 31.266 8.72832 32.1736 10.6797C33.0813 12.6311 33.5905 14.7442 33.6715 16.8951ZM27.3754 4.69127C26.656 5.13738 25.9101 5.5394 25.1419 5.89509C24.4117 4.43119 23.4199 3.11341 22.2154 2.00692C24.0838 2.58127 25.8323 3.49085 27.3754 4.69127ZM9.78143 5.89523C9.01312 5.53946 8.26711 5.13735 7.5475 4.69112C9.09068 3.49061 10.8393 2.58103 12.7078 2.0068C11.5032 3.11326 10.5114 4.43115 9.78143 5.89523ZM6.53726 5.53073C7.40567 6.09104 8.31196 6.59027 9.24958 7.0248C7.93861 10.1521 7.24618 13.504 7.21063 16.8951H1.25159C1.33271 14.7442 1.842 12.6312 2.74961 10.6798C3.65723 8.72836 4.94493 6.97785 6.53726 5.53073ZM1.25159 18.144H7.21063C7.24606 21.538 7.93959 24.8928 9.25274 28.0223C8.31547 28.4549 7.40985 28.953 6.54259 29.5131C4.94866 28.0659 3.65959 26.3149 2.75102 24.3626C1.84245 22.4103 1.33267 20.2961 1.25159 18.144ZM7.55007 30.3497C8.26984 29.9049 9.01625 29.5048 9.78507 29.1517C10.5148 30.6126 11.5053 31.9277 12.7077 33.0322C10.8403 32.4581 9.09264 31.5492 7.55007 30.3497ZM22.2297 33.0334C22.901 32.4288 23.5005 31.7489 24.0164 31.0071L24.791 31.9974C23.9687 32.4161 23.1118 32.7628 22.2297 33.0334Z" fill="white"/>
</svg>
