<svg width="118" height="74" viewBox="0 0 118 74" fill="none" xmlns="http://www.w3.org/2000/svg">
<g clip-path="url(#clip0_502_2)">
<path d="M110.52 19.9297L58.7 72.7697L7.10001 19.9397H0C0 20.0397 58.7 73.0397 58.7 73.0397C58.7 73.0397 117.57 19.9697 117.58 19.9397L110.52 19.9297Z" fill="black"/>
<path d="M36.2598 28.2197H44.3798V28.8897H38.1398V34.0897H43.7898V34.7597H38.1398V40.6297H36.2598V28.2197Z" fill="white"/>
<path d="M46.9197 28.2197H55.9197V28.8897L48.8597 39.9597H56.0397V40.6297H46.6797V39.9597L53.6797 28.8897H46.8997L46.9197 28.2197Z" fill="white"/>
<path d="M58.4697 34.4098C58.4697 29.9998 60.6397 28.0898 64.5297 28.0898C65.5014 28.0985 66.4697 28.2057 67.4197 28.4098V29.0098C66.6371 28.8717 65.8444 28.7981 65.0497 28.7898C61.5797 28.7898 60.4397 30.2398 60.4397 34.3798C60.4397 38.5198 61.5797 39.9898 65.0497 39.9898C65.8443 39.9784 66.6367 39.9048 67.4197 39.7698V40.4098C66.4698 40.6144 65.5014 40.7217 64.5297 40.7298C60.6397 40.7298 58.4697 38.8498 58.4697 34.4098Z" fill="white"/>
<path d="M69.9404 34.4098C69.9404 30.3198 72.0304 28.0498 75.5204 28.0498C79.0104 28.0498 81.1104 30.3198 81.1104 34.4098C81.1104 38.4998 79.0404 40.7298 75.5204 40.7298C72.0004 40.7298 69.9404 38.5098 69.9404 34.4098ZM79.1404 34.4098C79.1404 30.3398 78.0504 28.7598 75.5204 28.7598C72.9904 28.7598 71.9104 30.4098 71.9104 34.4098C71.9104 38.4098 73.0004 40.0898 75.5204 40.0898C78.0404 40.0898 79.1404 38.4798 79.1404 34.4098Z" fill="white"/>
<path d="M36.2598 28.2197H44.3798V28.8897H38.1398V34.0897H43.7898V34.7597H38.1398V40.6297H36.2598V28.2197Z" fill="black"/>
<path d="M46.9197 28.2197H55.9197V28.8897L48.8597 39.9597H56.0397V40.6297H46.6797V39.9597L53.6797 28.8897H46.8997L46.9197 28.2197Z" fill="black"/>
<path d="M58.4697 34.4098C58.4697 29.9998 60.6397 28.0898 64.5297 28.0898C65.5014 28.0985 66.4697 28.2057 67.4197 28.4098V29.0098C66.6371 28.8717 65.8444 28.7981 65.0497 28.7898C61.5797 28.7898 60.4397 30.2398 60.4397 34.3798C60.4397 38.5198 61.5797 39.9898 65.0497 39.9898C65.8443 39.9784 66.6367 39.9048 67.4197 39.7698V40.4098C66.4698 40.6144 65.5014 40.7217 64.5297 40.7298C60.6397 40.7298 58.4697 38.8498 58.4697 34.4098Z" fill="black"/>
<path d="M69.9404 34.4098C69.9404 30.3198 72.0304 28.0498 75.5204 28.0498C79.0104 28.0498 81.1104 30.3198 81.1104 34.4098C81.1104 38.4998 79.0404 40.7298 75.5204 40.7298C72.0004 40.7298 69.9404 38.5098 69.9404 34.4098ZM79.1404 34.4098C79.1404 30.3398 78.0504 28.7598 75.5204 28.7598C72.9904 28.7598 71.9104 30.4098 71.9104 34.4098C71.9104 38.4098 73.0004 40.0898 75.5204 40.0898C78.0404 40.0898 79.1404 38.4798 79.1404 34.4098Z" fill="black"/>
<path d="M0 18.9703H52.94V8.06032H23.68L28.56 3.27032H52.94V0.0703125H21.81L9.64 10.5203H44.81V15.6703H3.29L0 18.9703Z" fill="black"/>
<path d="M95.81 3L93.85 0H62.71V18.97H117.58L106.87 8.26H77.3V10.84H100.41L104.34 15.73H70.12V3.01L95.81 3Z" fill="black"/>
</g>
<defs>
<clipPath id="clip0_502_2">
<rect width="118" height="74" fill="white"/>
</clipPath>
</defs>
</svg>
